<svg xmlns="http://www.w3.org/2000/svg" viewBox="0 0 257.87 45.63"><defs><style>.cls-1{fill:#8a8e9b;}.cls-2{opacity:0.17;}.cls-3{fill:#2b2270;}</style></defs><title>Ресурс 5</title><g id="Слой_2" data-name="Слой 2"><g id="Слой_1-2" data-name="Слой 1"><path class="cls-1" d="M73.56,26.68a6,6,0,0,1-.26,1.82,5.46,5.46,0,0,1-.68,1.42,4.54,4.54,0,0,1-1,1,6.09,6.09,0,0,1-1.17.71,5.83,5.83,0,0,1-1.23.41,5.68,5.68,0,0,1-1.17.13H54.92V28.81H68.07a2,2,0,0,0,1.53-.58,2.17,2.17,0,0,0,.54-1.55,2.49,2.49,0,0,0-.14-.87,2,2,0,0,0-.41-.68,1.82,1.82,0,0,0-.66-.45,2.26,2.26,0,0,0-.86-.16H60.23a6.08,6.08,0,0,1-1.78-.3,5.36,5.36,0,0,1-1.78-1,5.19,5.19,0,0,1-1.36-1.72,5.64,5.64,0,0,1-.54-2.6,5.6,5.6,0,0,1,.54-2.59,5.23,5.23,0,0,1,3.14-2.68,6.08,6.08,0,0,1,1.78-.29H71.84v3.41H60.23a2,2,0,0,0-1.51.59A2.21,2.21,0,0,0,58.17,19a2.16,2.16,0,0,0,.54,1.55,2,2,0,0,0,1.51.57H68.1a6,6,0,0,1,1.17.15,5.83,5.83,0,0,1,1.23.43,5.9,5.9,0,0,1,1.16.73,4.91,4.91,0,0,1,1,1.06,5.18,5.18,0,0,1,.67,1.42A6.09,6.09,0,0,1,73.56,26.68Z"/><path class="cls-1" d="M95.46,24.61a8.27,8.27,0,0,1-.59,3.16,7.5,7.5,0,0,1-1.64,2.49,7.42,7.42,0,0,1-2.49,1.63,8.24,8.24,0,0,1-3.13.58H83a8.28,8.28,0,0,1-3.14-.58,7.41,7.41,0,0,1-2.49-1.63,7.56,7.56,0,0,1-1.65-2.49,8.18,8.18,0,0,1-.6-3.16V21a8.2,8.2,0,0,1,.6-3.15,7.38,7.38,0,0,1,4.14-4.13A8.2,8.2,0,0,1,83,13.14h4.62a8.15,8.15,0,0,1,3.13.59,7.56,7.56,0,0,1,2.49,1.63,7.41,7.41,0,0,1,1.64,2.49A8.29,8.29,0,0,1,95.46,21ZM92,21a5,5,0,0,0-.32-1.83,4,4,0,0,0-2.31-2.31,4.9,4.9,0,0,0-1.8-.32H83a4.94,4.94,0,0,0-1.82.32,4.12,4.12,0,0,0-1.41.9,4,4,0,0,0-.91,1.4A5,5,0,0,0,78.54,21v3.59a5,5,0,0,0,.32,1.83,4,4,0,0,0,.91,1.4,4.11,4.11,0,0,0,1.41.91,4.94,4.94,0,0,0,1.82.32h4.59a4.93,4.93,0,0,0,1.82-.32,4.11,4.11,0,0,0,1.41-.91,4,4,0,0,0,.91-1.4A5,5,0,0,0,92,24.61Z"/><path class="cls-1" d="M115.13,16.82H101.46v15.4H98.05V15.12a1.75,1.75,0,0,1,.49-1.22,1.62,1.62,0,0,1,.54-.37,1.76,1.76,0,0,1,.68-.13h15.36Zm-1.52,7.71H102.83V21.09h10.78Z"/><path class="cls-1" d="M135.85,16.82h-7.52v15.4h-3.41V16.82H117.4V13.41h18.46Z"/><path class="cls-1" d="M167.24,19.73a7,7,0,0,1-.29,2.09,5.86,5.86,0,0,1-.78,1.62,5.53,5.53,0,0,1-1.13,1.2,6.84,6.84,0,0,1-1.34.82,6.47,6.47,0,0,1-1.42.47,6.81,6.81,0,0,1-1.34.14l7.12,6.15h-5.27l-7.11-6.15h-2.45V22.65h7.71a3.94,3.94,0,0,0,1.17-.27,2.92,2.92,0,0,0,.92-.58,2.49,2.49,0,0,0,.6-.89,3.15,3.15,0,0,0,.21-1.19V17.58a1.06,1.06,0,0,0-.07-.44.53.53,0,0,0-.18-.22.54.54,0,0,0-.24-.08H151.85v15.4h-3.41V15.12a1.75,1.75,0,0,1,.49-1.22,1.62,1.62,0,0,1,.54-.37,1.76,1.76,0,0,1,.68-.13h12.95a4.11,4.11,0,0,1,1.93.41,3.92,3.92,0,0,1,1.28,1A4,4,0,0,1,167,16.2a4.71,4.71,0,0,1,.22,1.35Z"/><path class="cls-1" d="M189.79,32.22h-3.41V27.6h-12v4.62H171V22.81a9.91,9.91,0,0,1,.71-3.79,8.85,8.85,0,0,1,2-3,9,9,0,0,1,3-1.94,9.91,9.91,0,0,1,3.75-.7h7.69a1.73,1.73,0,0,1,.67.13,1.69,1.69,0,0,1,.92.92,1.73,1.73,0,0,1,.13.67Zm-15.4-8h12V16.82h-6l-.66,0a6.73,6.73,0,0,0-1.17.23,7.35,7.35,0,0,0-1.4.56,4.92,4.92,0,0,0-1.35,1,5.38,5.38,0,0,0-1,1.67,6.58,6.58,0,0,0-.4,2.43Z"/><path class="cls-1" d="M212.77,24.35a8.18,8.18,0,0,1-.6,3.16A7.39,7.39,0,0,1,208,31.63a8.2,8.2,0,0,1-3.13.59h-9.21a1.74,1.74,0,0,1-.68-.13,1.64,1.64,0,0,1-.91-.9,1.75,1.75,0,0,1-.13-.68V15.12a1.75,1.75,0,0,1,.49-1.22,1.62,1.62,0,0,1,.54-.37,1.76,1.76,0,0,1,.68-.13h9.21A8.2,8.2,0,0,1,208,14a7.38,7.38,0,0,1,4.14,4.13,8.2,8.2,0,0,1,.6,3.15Zm-3.41-3.07a5,5,0,0,0-.32-1.82,4,4,0,0,0-.91-1.41,4.11,4.11,0,0,0-1.41-.91,4.93,4.93,0,0,0-1.82-.32h-7.52v12h7.52a4.93,4.93,0,0,0,1.82-.32,4.11,4.11,0,0,0,1.41-.91,4,4,0,0,0,.91-1.4,5,5,0,0,0,.32-1.83Z"/><path class="cls-1" d="M234.59,32.22h-3.41V27.6h-12v4.62h-3.41V22.81a9.91,9.91,0,0,1,.71-3.79,8.85,8.85,0,0,1,2-3,9,9,0,0,1,3-1.94,9.91,9.91,0,0,1,3.75-.7h7.69a1.73,1.73,0,0,1,.67.13,1.69,1.69,0,0,1,.92.92,1.73,1.73,0,0,1,.13.67Zm-15.4-8h12V16.82h-6l-.66,0a6.73,6.73,0,0,0-1.17.23,7.35,7.35,0,0,0-1.4.56,4.92,4.92,0,0,0-1.35,1,5.38,5.38,0,0,0-1,1.67,6.58,6.58,0,0,0-.4,2.43Z"/><path class="cls-1" d="M257.06,19.73a7,7,0,0,1-.29,2.09,5.86,5.86,0,0,1-.78,1.62,5.53,5.53,0,0,1-1.13,1.2,6.84,6.84,0,0,1-1.34.82,6.47,6.47,0,0,1-1.42.47,6.81,6.81,0,0,1-1.34.14l7.12,6.15H252.6l-7.11-6.15H243V22.65h7.71a3.94,3.94,0,0,0,1.17-.27,2.92,2.92,0,0,0,.92-.58,2.49,2.49,0,0,0,.6-.89,3.15,3.15,0,0,0,.21-1.19V17.58a1.06,1.06,0,0,0-.07-.44.53.53,0,0,0-.18-.22.54.54,0,0,0-.24-.08H241.67v15.4h-3.41V15.12a1.75,1.75,0,0,1,.49-1.22,1.62,1.62,0,0,1,.54-.37,1.76,1.76,0,0,1,.68-.13h12.95a4.11,4.11,0,0,1,1.93.41,3.92,3.92,0,0,1,1.28,1,4,4,0,0,1,.71,1.34,4.71,4.71,0,0,1,.22,1.35Z"/><path class="cls-1" d="M22,45.63a22,22,0,1,1,22-22A22,22,0,0,1,22,45.63Zm0-41a19,19,0,1,0,15.5,8A19,19,0,0,0,22,4.63Z"/><path class="cls-1" d="M21.86,37.26a13.36,13.36,0,0,1-5.35-1.11A13.73,13.73,0,0,1,8.35,24.31a1.5,1.5,0,1,1,3-.15,10.71,10.71,0,0,0,6.37,9.24A10.62,10.62,0,1,0,17.45,14a1.5,1.5,0,0,1-1.28-2.71A13.61,13.61,0,0,1,29.54,34.9,13.8,13.8,0,0,1,21.86,37.26Z"/><g class="cls-2"><path class="cls-3" d="M38.72,11.78,21.72,24,5.09,12a20.49,20.49,0,0,1,33.63-.27Z"/></g><path class="cls-1" d="M21.72,25.52a1.5,1.5,0,0,1-.88-.28l-16.63-12a1.5,1.5,0,0,1-.36-2.06,22,22,0,0,1,36.09-.29A1.5,1.5,0,0,1,39.6,13l-17,12.24A1.5,1.5,0,0,1,21.72,25.52ZM7.2,11.72,21.72,22.17l14.87-10.7a19,19,0,0,0-29.39.25Z"/><circle class="cls-1" cx="12.08" cy="4.88" r="4.88"/><circle class="cls-1" cx="30.16" cy="32.38" r="3.32"/><circle class="cls-1" cx="21.68" cy="24" r="2.89"/></g></g></svg>