<svg xmlns="http://www.w3.org/2000/svg" width="60" height="61" viewBox="0 0 60 61">
  <metadata><?xpacket begin="﻿" id="W5M0MpCehiHzreSzNTczkc9d"?>
<x:xmpmeta xmlns:x="adobe:ns:meta/" x:xmptk="Adobe XMP Core 5.6-c138 79.159824, 2016/09/14-01:09:01        ">
   <rdf:RDF xmlns:rdf="http://www.w3.org/1999/02/22-rdf-syntax-ns#">
      <rdf:Description rdf:about=""/>
   </rdf:RDF>
</x:xmpmeta>
                                                                                                    
                                                                                                    
                                                                                                    
                                                                                                    
                                                                                                    
                                                                                                    
                                                                                                    
                                                                                                    
                                                                                                    
                                                                                                    
                                                                                                    
                                                                                                    
                                                                                                    
                                                                                                    
                                                                                                    
                                                                                                    
                                                                                                    
                                                                                                    
                                                                                                    
                                                                                                    
                           
<?xpacket end="w"?></metadata>
<defs>
    <style>
      .cls-1 {
        fill: #434667;
        fill-rule: evenodd;
      }
    </style>
  </defs>
  <path class="cls-1" d="M1322.16,640.832v24.3a0.975,0.975,0,0,1-1.95,0v-24.3A0.975,0.975,0,0,1,1322.16,640.832Zm9.82,4.7a4.979,4.979,0,0,1-1.65,8.022,4.984,4.984,0,0,1-1.64,8.023,4.983,4.983,0,0,1-3.61,8.425h-24.06a0.975,0.975,0,1,1,0-1.949h24.06a3.037,3.037,0,1,0,0-6.074,0.974,0.974,0,0,1,0-1.948h1.65a3.037,3.037,0,0,0,0-6.074h-1.65a0.975,0.975,0,0,1,0-1.949h3.29a3.037,3.037,0,1,0,0-6.074h-3.29a0.974,0.974,0,0,1,0-1.948h4.93a3.038,3.038,0,1,0,0-6.075H1316.1a0.977,0.977,0,0,1-.86-0.51,0.987,0.987,0,0,1,.04-1,26.769,26.769,0,0,0,3.91-14.478,3.04,3.04,0,0,0-6.08,0,16.006,16.006,0,0,1-15.02,15.953v31.147a0.97,0.97,0,0,1-.97.974h-7.73a0.97,0.97,0,0,1-.97-0.974V636.935a0.969,0.969,0,0,1,.97-0.974h7.73a14.054,14.054,0,0,0,14.04-14.035,4.99,4.99,0,0,1,9.98,0,29.655,29.655,0,0,1-3.33,14.035h12.2A4.987,4.987,0,0,1,1331.98,645.53Zm-35.83-7.621h-5.78v30.142h5.78V637.909Zm30.45-3.9a0.969,0.969,0,0,1-.97-0.974V611.092a0.148,0.148,0,0,0-.15-0.143h-43.11a0.146,0.146,0,0,0-.14.143v3.9a0.976,0.976,0,0,1-.54.871l-3.54,1.768,3.54,1.769a0.975,0.975,0,0,1,.54.872v15.539a0.147,0.147,0,0,0,.14.144l3.13,0.009a0.974,0.974,0,1,1-.01,1.948l-3.12-.009a2.1,2.1,0,0,1-2.09-2.092V620.871l-4.74-2.371a0.973,0.973,0,0,1,0-1.743l4.74-2.371v-3.294a2.1,2.1,0,0,1,2.09-2.092h43.11a2.088,2.088,0,0,1,2.09,2.092v21.947A0.969,0.969,0,0,1,1326.6,634.013Z" transform="translate(-1275 -609)"/>
</svg>
