<svg xmlns="http://www.w3.org/2000/svg" width="66" height="60" viewBox="0 0 66 60">
  <metadata><?xpacket begin="﻿" id="W5M0MpCehiHzreSzNTczkc9d"?>
<x:xmpmeta xmlns:x="adobe:ns:meta/" x:xmptk="Adobe XMP Core 5.6-c138 79.159824, 2016/09/14-01:09:01        ">
   <rdf:RDF xmlns:rdf="http://www.w3.org/1999/02/22-rdf-syntax-ns#">
      <rdf:Description rdf:about=""/>
   </rdf:RDF>
</x:xmpmeta>
                                                                                                    
                                                                                                    
                                                                                                    
                                                                                                    
                                                                                                    
                                                                                                    
                                                                                                    
                                                                                                    
                                                                                                    
                                                                                                    
                                                                                                    
                                                                                                    
                                                                                                    
                                                                                                    
                                                                                                    
                                                                                                    
                                                                                                    
                                                                                                    
                                                                                                    
                                                                                                    
                           
<?xpacket end="w"?></metadata>
<defs>
    <style>
      .cls-1 {
        fill: #434667;
        fill-rule: evenodd;
      }
    </style>
  </defs>
  <path class="cls-1" d="M550.966,657.559H529.2v6.354h4.2a2.005,2.005,0,0,1,2,2.007v2.073a2.005,2.005,0,0,1-2,2.007H508.6a2.005,2.005,0,0,1-2-2.007V665.92a2.005,2.005,0,0,1,2-2.007h4.2v-6.354H491.033A3.043,3.043,0,0,1,488,654.515V613.044A3.042,3.042,0,0,1,491.033,610h59.934A3.042,3.042,0,0,1,554,613.044v41.471A3.043,3.043,0,0,1,550.966,657.559ZM508.6,665.853a0.066,0.066,0,0,0-.066.067v2.073a0.066,0.066,0,0,0,.066.067h24.8a0.067,0.067,0,0,0,.067-0.067V665.92a0.067,0.067,0,0,0-.067-0.067h-7.234a0.97,0.97,0,0,1,0-1.94h1.1v-6.354H514.734v6.354h7.3a0.97,0.97,0,0,1,0,1.94H508.6Zm43.466-52.809a1.1,1.1,0,0,0-1.1-1.1H491.033a1.1,1.1,0,0,0-1.1,1.1v41.471a1.1,1.1,0,0,0,1.1,1.1h59.934a1.1,1.1,0,0,0,1.1-1.1V613.044ZM548.9,653.411H493.1a0.968,0.968,0,0,1-.967-0.97V615.117a0.968,0.968,0,0,1,.967-0.97h55.8a0.968,0.968,0,0,1,.967.97v37.324A0.968,0.968,0,0,1,548.9,653.411Zm-38.3-30.97h11.5v-2.207H510.6v2.207Zm-16.533,29.03h14.6V620.234h-14.6v31.237Zm14.6-35.384h-14.6v2.207h14.6v-2.207Zm39.266,4.147h-3.166a0.97,0.97,0,0,1,0-1.94h3.166v-2.207H510.6v2.207h30.033a0.97,0.97,0,0,1,0,1.94h-4.2v2.207h11.5v-2.207Zm-23.9,0v2.207H534.5v-2.207H524.033Zm23.9,4.147H510.6v27.09h37.333v-27.09ZM517.9,631.772a5.1,5.1,0,0,1,3.826,1.734,0.968,0.968,0,1,1-1.45,1.283,3.164,3.164,0,0,0-5.542,2.1v2.073a3.165,3.165,0,0,0,5.542,2.1,0.968,0.968,0,1,1,1.45,1.284,5.1,5.1,0,0,1-8.926-3.385V636.89A5.115,5.115,0,0,1,517.9,631.772Zm6.8,0h4.133a4.083,4.083,0,0,1,1.434,7.9l1.5,3a0.968,0.968,0,1,1-1.73.868l-1.8-3.611H525.67v3.177a0.967,0.967,0,1,1-1.934,0V632.742A0.968,0.968,0,0,1,524.7,631.772Zm0.967,6.221h3.166a2.141,2.141,0,0,0,0-4.281H525.67v4.281Zm9.8-6.22h0.93a0.966,0.966,0,0,1,.909.641l2.811,7.832,2.81-7.832a0.967,0.967,0,0,1,.91-0.642h0.929a0.968,0.968,0,0,1,.967.97V643.11a0.967,0.967,0,1,1-1.933,0v-7.4c-1.086,3.025-2.723,7.589-2.771,7.723a0.968,0.968,0,0,1-.467.538,0.961,0.961,0,0,1-1.236-.3,0.919,0.919,0,0,1-.165-0.358l-2.728-7.6v7.4a0.967,0.967,0,1,1-1.933,0V632.743A0.968,0.968,0,0,1,535.467,631.773Zm-29.967,9.2h-3.1a0.97,0.97,0,0,1,0-1.94h3.1A0.97,0.97,0,0,1,505.5,640.97Zm0-4.147h-3.1a0.97,0.97,0,0,1,0-1.94h3.1A0.97,0.97,0,0,1,505.5,636.823Zm0-4.147h-3.1a0.97,0.97,0,0,1,0-1.94h3.1A0.97,0.97,0,0,1,505.5,632.676Zm0-4.147h-3.1a0.971,0.971,0,0,1,0-1.941h3.1A0.971,0.971,0,0,1,505.5,628.529Zm0-4.148h-3.1a0.97,0.97,0,0,1,0-1.94h3.1A0.97,0.97,0,0,1,505.5,624.381Zm-7.233,16.589h-1.034a0.97,0.97,0,0,1,0-1.94h1.034A0.97,0.97,0,0,1,498.267,640.97Zm0-4.147h-1.034a0.97,0.97,0,0,1,0-1.94h1.034A0.97,0.97,0,0,1,498.267,636.823Zm0-4.147h-1.034a0.97,0.97,0,0,1,0-1.94h1.034A0.97,0.97,0,0,1,498.267,632.676Zm0-4.147h-1.034a0.971,0.971,0,0,1,0-1.941h1.034A0.971,0.971,0,0,1,498.267,628.529Zm0-4.148h-1.034a0.97,0.97,0,0,1,0-1.94h1.034A0.97,0.97,0,0,1,498.267,624.381Z" transform="translate(-488 -610)"/>
</svg>
