<svg xmlns="http://www.w3.org/2000/svg" width="65" height="61" viewBox="0 0 65 61">
  <metadata><?xpacket begin="﻿" id="W5M0MpCehiHzreSzNTczkc9d"?>
<x:xmpmeta xmlns:x="adobe:ns:meta/" x:xmptk="Adobe XMP Core 5.6-c138 79.159824, 2016/09/14-01:09:01        ">
   <rdf:RDF xmlns:rdf="http://www.w3.org/1999/02/22-rdf-syntax-ns#">
      <rdf:Description rdf:about=""/>
   </rdf:RDF>
</x:xmpmeta>
                                                                                                    
                                                                                                    
                                                                                                    
                                                                                                    
                                                                                                    
                                                                                                    
                                                                                                    
                                                                                                    
                                                                                                    
                                                                                                    
                                                                                                    
                                                                                                    
                                                                                                    
                                                                                                    
                                                                                                    
                                                                                                    
                                                                                                    
                                                                                                    
                                                                                                    
                                                                                                    
                           
<?xpacket end="w"?></metadata>
<defs>
    <style>
      .cls-1 {
        fill: #434667;
        fill-rule: evenodd;
      }
    </style>
  </defs>
  <path class="cls-1" d="M929.782,670H873.218A4.206,4.206,0,0,1,869,665.816V613.184A4.206,4.206,0,0,1,873.218,609h32.216a6.4,6.4,0,0,1,4.674,2.03l4.044,6.346h15.63A4.206,4.206,0,0,1,934,621.56v44.256A4.206,4.206,0,0,1,929.782,670Zm-37.7-59.008H873.218a2.2,2.2,0,0,0-2.209,2.192V618a4.216,4.216,0,0,1,2.209-.622h24.851l-2.786-5A4.384,4.384,0,0,0,892.085,610.992Zm6.922,0h-2.285c0.012,0.013.025,0.025,0.036,0.038l4.045,6.346h4.188l-2.786-5A4.384,4.384,0,0,0,899.007,610.992Zm9.625,1.389a4.383,4.383,0,0,0-3.2-1.389h-1.79l0.037,0.038,4.044,6.346h3.694Zm23.359,9.179a2.2,2.2,0,0,0-2.209-2.192H873.218a2.2,2.2,0,0,0-2.209,2.192v44.256a2.2,2.2,0,0,0,2.209,2.192h56.564a2.2,2.2,0,0,0,2.209-2.192V621.56ZM925.5,639.5H900.42a2.069,2.069,0,0,1-2.075-2.059V626.811a2.069,2.069,0,0,1,2.075-2.059H925.5a2.069,2.069,0,0,1,2.075,2.059v10.626A2.069,2.069,0,0,1,925.5,639.5Zm0.067-12.685a0.067,0.067,0,0,0-.067-0.067H900.42a0.066,0.066,0,0,0-.066.067v10.626a0.066,0.066,0,0,0,.066.067H925.5a0.067,0.067,0,0,0,.067-0.067V626.811Zm-3.281,8.435H903.634a1,1,0,1,1,0-1.993h18.649A1,1,0,1,1,922.283,635.246Zm0-4.251H903.634a1,1,0,1,1,0-1.993h18.649A1,1,0,1,1,922.283,631Z" transform="translate(-869 -609)"/>
</svg>
